# xmcd
#
# Track frame offsets:
#	150
#	7951
#	27156
#	42764
#	56734
#	84244
#	101402
#	122719
#	143474
#	163514
#	180743
#	199478
#	209076
#	228464
#	247409
#
# Disc length: 3475 seconds
#
# Revision: 0
# Processed by: cddbd v1.5.1PL0 Copyright (c) Steve Scherf et al.
# Submitted via: dBpowerAMP V4.0
#
DISCID=cc0d910f
DTITLE=Alicia Keys - The Diary of Alicia Keys
DYEAR=2003
DGENRE=Tango
TTITLE0=Harlem's Nocturne
TTITLE1=Karma
TTITLE2=Heartburn
TTITLE3=Alicia Keys - If I Was Your Woman-Walk on By
TTITLE4=You Don't Know My Name
TTITLE5=If I Ain't Got You
TTITLE6=Dairy featuring Tony!Toni!Tone!
TTITLE7=Dragon Days
TTITLE8=Wake Up
TTITLE9=So Simple
TTITLE10=When You Really Love Someone
TTITLE11=Feeling U, Feeling Me [Interlude]
TTITLE12=Slow Down
TTITLE13=Samsonite Man
TTITLE14=Nobody Not Really
EXTD=
EXTT0=
EXTT1=
EXTT2=
EXTT3=
EXTT4=
EXTT5=
EXTT6=
EXTT7=
EXTT8=
EXTT9=
EXTT10=
EXTT11=
EXTT12=
EXTT13=
EXTT14=
PLAYORDER=
